<svg width="19" height="19" viewBox="0 0 19 19" fill="none" xmlns="http://www.w3.org/2000/svg">
<path d="M2.78247 0.165039C1.68091 0.165039 0.782471 1.06348 0.782471 2.16504V16.165C0.782471 17.2666 1.68091 18.165 2.78247 18.165H16.7825C17.884 18.165 18.7825 17.2666 18.7825 16.165V2.16504C18.7825 1.06348 17.884 0.165039 16.7825 0.165039H2.78247ZM4.18872 4.85254H6.78247C9.08325 4.85254 9.46997 6.2666 9.46997 7.16504C9.46997 8.46582 8.57544 8.87598 8.37622 8.97754C8.57544 9.0791 9.59497 9.35254 9.59497 10.8525C9.69653 12.6533 8.57153 13.3525 6.96997 13.3525H4.18872V4.85254ZM11.1887 4.85254H14.8762V5.85254H11.1887V4.85254ZM5.87622 6.25879V8.35254H6.78247C7.38403 8.35254 7.78247 8.15332 7.78247 7.35254C7.78247 6.65332 7.48169 6.25879 6.78247 6.25879H5.87622ZM13.3762 6.97754C14.7747 6.97754 15.7825 7.77051 15.7825 10.0713V10.7588H12.3762C12.3762 11.0596 12.3958 12.165 13.595 12.165C14.3958 12.165 14.7708 11.7705 14.97 11.5713L15.6887 12.5713C15.5872 12.6729 14.8958 13.4775 13.595 13.4775C12.095 13.4775 10.8762 12.6729 10.8762 10.5713V10.0713C10.8762 7.77051 12.0754 6.97754 13.3762 6.97754ZM13.1887 8.25879C12.8879 8.25879 12.2825 8.37207 12.2825 9.57129H13.97C13.97 9.57129 14.1887 8.25879 13.1887 8.25879ZM5.87622 9.66504V11.9775H6.96997C7.57153 11.9775 7.87622 11.5518 7.87622 10.8525C7.97778 10.0518 7.69653 9.66504 7.09497 9.66504H5.87622Z" fill="black"/>
</svg>
