<svg width="18" height="19" viewBox="0 0 18 19" fill="none" xmlns="http://www.w3.org/2000/svg">
<path d="M16 0.165039H2C0.895 0.165039 0 1.06004 0 2.16504V16.165C0 17.27 0.895 18.165 2 18.165H16C17.105 18.165 18 17.27 18 16.165V2.16504C18 1.06004 17.105 0.165039 16 0.165039ZM6 14.165H3.477V7.16504H6V14.165ZM4.694 5.88204C3.923 5.88204 3.408 5.36804 3.408 4.68204C3.408 3.99604 3.922 3.48204 4.779 3.48204C5.55 3.48204 6.065 3.99604 6.065 4.68204C6.065 5.36804 5.551 5.88204 4.694 5.88204ZM15 14.165H12.558V10.339C12.558 9.28104 11.907 9.03704 11.663 9.03704C11.419 9.03704 10.605 9.20004 10.605 10.339C10.605 10.502 10.605 14.165 10.605 14.165H8.082V7.16504H10.605V8.14204C10.93 7.57204 11.581 7.16504 12.802 7.16504C14.023 7.16504 15 8.14204 15 10.339V14.165Z" fill="black"/>
</svg>
