<svg width="119" height="49" viewBox="0 0 119 49" fill="none" xmlns="http://www.w3.org/2000/svg">
<g clip-path="url(#clip0_75_937)">
<path d="M29.5863 47.96H28.9263C24.2863 47.96 20.2563 46.22 16.8162 42.73C13.3762 39.24 11.6562 35.18 11.6562 30.54C11.6562 25.9 13.3662 21.89 16.7762 18.5C20.1962 15.11 24.4163 13.41 29.4363 13.41C34.4563 13.41 38.7762 15.41 42.3962 19.41L19.4163 42.1C22.5863 44.64 25.6362 45.91 28.5662 45.91C31.4963 45.91 34.1163 45.24 36.4363 43.9C38.7563 42.56 40.6663 40.76 42.1863 38.52V42.25C38.7163 46.06 34.5263 47.96 29.5963 47.96H29.5863ZM28.8162 15.46C24.9362 15.46 21.4963 16.96 18.4963 19.96C15.4963 22.96 13.9963 26.41 13.9963 30.32C13.9963 34.23 15.2862 37.64 17.8762 40.57L39.1762 19.42C36.1462 16.78 32.6963 15.47 28.8162 15.47V15.46Z" fill="#F9F9F9" stroke="white" stroke-width="1.66" stroke-miterlimit="10"/>
<path d="M61.2759 45.47V47.52C57.8059 47.52 54.8559 46.36 52.4159 44.04C49.9759 41.72 48.7559 38.76 48.7559 35.15V0.890015H51.0959V14.21H61.1959V16.26H51.0959V35.15C51.0959 38.13 52.0859 40.59 54.0559 42.54C56.0359 44.49 58.4359 45.47 61.2659 45.47H61.2759Z" fill="#F9F9F9" stroke="white" stroke-width="1.66" stroke-miterlimit="10"/>
<path d="M78.916 45.47V47.52C75.446 47.52 72.496 46.36 70.056 44.04C67.616 41.72 66.396 38.76 66.396 35.15V0.890015H68.736V14.21H78.836V16.26H68.736V35.15C68.736 38.13 69.726 40.59 71.696 42.54C73.676 44.49 76.076 45.47 78.906 45.47H78.916Z" fill="#F9F9F9" stroke="white" stroke-width="1.66" stroke-miterlimit="10"/>
<path d="M117.636 14.14V47.08H115.296V38.88C113.926 41.66 111.876 43.86 109.146 45.47C106.416 47.08 103.486 47.89 100.366 47.89C95.5858 47.89 91.4858 46.2 88.0658 42.8C84.6458 39.41 82.9458 35.35 82.9458 30.61C82.9458 25.87 84.6558 21.81 88.0658 18.42C91.4858 15.03 95.5758 13.33 100.366 13.33C103.486 13.33 106.476 14.16 109.336 15.82C112.186 17.48 114.176 19.68 115.306 22.41V14.14H117.646H117.636ZM85.2858 30.68C85.2858 34.78 86.7858 38.33 89.7858 41.33C92.7858 44.33 96.3458 45.83 100.476 45.83C104.606 45.83 108.126 44.33 111.056 41.33C113.986 38.33 115.446 34.77 115.446 30.64C115.446 26.51 113.966 22.94 111.016 19.92C108.066 16.89 104.536 15.38 100.436 15.38C96.3358 15.38 92.7858 16.91 89.7858 19.95C86.7858 23 85.2858 26.57 85.2858 30.67V30.68Z" fill="#F9F9F9" stroke="white" stroke-width="1.66" stroke-miterlimit="10"/>
<path d="M2.87598 0.830017V47.13" stroke="white" stroke-width="1.66" stroke-miterlimit="10"/>
<path d="M3.99609 0.830017H1.74609V47.13H3.99609V0.830017Z" fill="#F9F9F9" stroke="white" stroke-width="1.66" stroke-miterlimit="10"/>
</g>
<defs>
<clipPath id="clip0_75_937">
<rect width="117.55" height="48.79" fill="white" transform="translate(0.916016)"/>
</clipPath>
</defs>
</svg>
